<?xml version="1.0" encoding="UTF-8" standalone="no"?>
<svg width="81px" height="178px" viewBox="0 0 81 178" version="1.1" xmlns="http://www.w3.org/2000/svg" xmlns:xlink="http://www.w3.org/1999/xlink">
    <!-- Generator: Sketch 3.7.2 (28276) - http://www.bohemiancoding.com/sketch -->
    <title>logo-gulp-webpack</title>
    <desc>Created with Sketch.</desc>
    <defs></defs>
    <g id="Page-1" stroke="none" stroke-width="1" fill="none" fill-rule="evenodd">
        <g id="logo-gulp-webpack" transform="translate(-0.578947, 0.000000)">
            <g id="gulp" transform="translate(0.578947, 0.000000)" fill="#EB4A4B">
                <g id="Group">
                    <path d="M57.097,39.803 L60.58,25.681 L80.505,4.645 C80.511,4.639 80.518,4.632 80.525,4.625 C80.946,4.148 80.091,2.672 78.671,1.406 C77.251,0.14 75.718,-0.288 75.241,0.194 C75.237,0.198 75.233,0.201 75.23,0.205 L53.97,22.574 L49.599,39.451 C46.672,39.357 43.622,39.307 40.489,39.307 C18.344,39.307 0.393,41.783 0.393,44.837 C0.393,47.892 18.345,50.368 40.489,50.368 C62.634,50.368 80.586,47.892 80.586,44.837 C80.586,42.601 70.953,40.674 57.097,39.803 L57.097,39.803 Z M51.734,47.752 C49.103,47.752 46.969,47.171 46.969,46.455 C46.969,46.152 47.355,45.873 47.993,45.652 L47.934,45.881 C47.911,45.919 47.898,45.957 47.898,45.996 C47.898,46.46 49.615,46.835 51.734,46.835 C53.852,46.835 55.57,46.46 55.57,45.996 L55.64,45.712 C56.18,45.922 56.499,46.178 56.499,46.455 C56.5,47.171 54.366,47.752 51.734,47.752 L51.734,47.752 Z" id="Shape"></path>
                    <path d="M40.142,140.124 C29.738,140.124 21.699,138.562 17.833,137.629 C15.19,136.992 13.066,136.334 11.454,135.656 L16.61,144.466 L18.627,171.989 C18.627,175.075 28.429,177.576 40.52,177.576 C52.611,177.576 62.413,175.075 62.413,171.989 L64.01,144.165 L68.888,135.631 C67.269,136.318 65.127,136.985 62.45,137.629 C58.585,138.562 50.545,140.124 40.142,140.124 L40.142,140.124 Z" id="Shape"></path>
                    <path d="M69.056,50.562 C61.421,51.629 51.285,52.216 40.52,52.216 C29.754,52.216 19.62,51.629 11.984,50.562 C8.201,50.034 5.209,49.411 3.089,48.711 C2.584,48.544 1.726,48.258 0.902,47.804 L5.633,91.346 C5.853,90.595 6.097,89.846 6.369,89.1 C6.924,87.571 7.566,86.076 8.296,84.615 C9.025,83.156 9.819,81.775 10.678,80.475 C11.536,79.175 12.45,77.978 13.418,76.885 C14.387,75.792 15.381,74.852 16.401,74.064 C17.421,73.276 18.45,72.661 19.49,72.218 C20.53,71.774 21.559,71.552 22.579,71.552 C23.753,71.552 24.89,71.874 25.988,72.516 C27.085,73.158 28.111,74.199 29.067,75.636 C29.286,75.958 29.426,76.282 29.484,76.611 C29.543,76.941 29.571,77.25 29.571,77.54 C29.571,78.228 29.406,78.772 29.077,79.169 C28.748,79.566 28.357,79.765 27.906,79.765 C27.492,79.765 27.109,79.547 26.754,79.112 C26.399,78.676 26.002,78.052 25.563,77.241 C25.149,76.507 24.695,75.976 24.198,75.647 C23.701,75.318 23.162,75.154 22.581,75.154 C21.677,75.154 20.712,75.529 19.685,76.278 C18.659,77.027 17.642,78.017 16.635,79.249 C15.628,80.48 14.662,81.887 13.739,83.47 C12.817,85.052 11.999,86.673 11.289,88.332 C10.579,89.992 10.014,91.629 9.594,93.241 C9.174,94.855 8.965,96.305 8.965,97.589 C8.965,98.018 8.994,98.458 9.052,98.908 C9.111,99.359 9.219,99.767 9.382,100.136 C9.543,100.503 9.762,100.805 10.04,101.041 C10.318,101.279 10.669,101.397 11.096,101.397 C11.574,101.397 12.116,101.237 12.723,100.915 C13.329,100.595 13.959,100.174 14.61,99.653 C15.262,99.132 15.918,98.544 16.577,97.887 C17.236,97.23 17.849,96.563 18.416,95.89 C18.984,95.217 19.487,94.573 19.927,93.952 C20.366,93.334 20.695,92.795 20.915,92.337 L22.716,86.945 C22.935,86.364 23.222,85.951 23.578,85.707 C23.933,85.462 24.298,85.339 24.672,85.339 C24.852,85.339 25.033,85.37 25.214,85.431 C25.396,85.493 25.556,85.588 25.699,85.718 C25.841,85.848 25.954,86.016 26.037,86.223 C26.121,86.429 26.163,86.67 26.163,86.945 C26.163,87.679 26.099,88.367 25.97,89.01 C25.841,89.653 25.677,90.279 25.476,90.891 C25.276,91.501 25.053,92.119 24.808,92.738 C24.562,93.356 24.324,94.004 24.092,94.676 C24.04,94.754 23.946,94.995 23.811,95.4 C23.675,95.806 23.511,96.315 23.317,96.925 C23.123,97.536 22.913,98.221 22.688,98.978 C22.461,99.735 22.23,100.508 21.991,101.294 C21.752,102.083 21.523,102.855 21.303,103.611 C21.083,104.368 20.886,105.052 20.712,105.666 C20.538,106.276 20.393,106.789 20.275,107.201 C20.159,107.614 20.088,107.858 20.062,107.936 C19.998,108.18 19.894,108.453 19.753,108.749 C19.611,109.047 19.443,109.331 19.249,109.598 C19.056,109.867 18.842,110.088 18.61,110.263 C18.378,110.439 18.139,110.527 17.893,110.527 C17.48,110.527 17.18,110.389 16.993,110.115 C16.805,109.841 16.712,109.336 16.712,108.601 L16.712,108.281 C16.712,108.173 16.718,108.058 16.731,107.936 C16.744,107.692 16.841,107.231 17.022,106.558 C17.203,105.885 17.419,105.126 17.671,104.278 C17.923,103.428 18.194,102.549 18.484,101.638 C18.774,100.729 19.036,99.914 19.268,99.196 C18.583,99.961 17.841,100.721 17.041,101.478 C16.24,102.235 15.42,102.916 14.581,103.521 C13.742,104.124 12.896,104.618 12.044,105 C11.192,105.381 10.372,105.572 9.585,105.572 C8.681,105.572 7.903,105.374 7.251,104.975 C7.133,104.904 7.022,104.821 6.912,104.741 L9.544,132.344 C10.229,134.062 23.131,138.282 40.142,138.282 C57.16,138.282 70.068,134.058 70.741,132.343 L74.522,99.527 C74.209,99.813 73.905,100.095 73.613,100.366 C72.529,101.376 71.505,102.244 70.543,102.97 C69.582,103.697 68.643,104.259 67.726,104.656 C66.809,105.054 65.828,105.253 64.782,105.253 C63.801,105.253 63.042,105.039 62.507,104.612 C61.971,104.183 61.703,103.594 61.703,102.846 L61.703,102.673 C61.703,102.619 61.709,102.553 61.723,102.477 C61.774,102.019 61.974,101.49 62.323,100.895 C62.671,100.298 63.091,99.678 63.581,99.037 C64.072,98.394 64.596,97.744 65.15,97.087 C65.706,96.431 66.218,95.808 66.691,95.217 C67.161,94.63 67.551,94.09 67.861,93.601 C68.172,93.111 68.327,92.714 68.327,92.408 C68.327,92.224 68.262,92.08 68.134,91.971 C68.004,91.866 67.79,91.811 67.494,91.811 C66.977,91.811 66.444,91.946 65.897,92.213 C65.347,92.48 64.804,92.84 64.269,93.291 C63.733,93.741 63.211,94.258 62.7,94.839 C62.19,95.421 61.713,96.024 61.267,96.651 C60.821,97.28 60.415,97.911 60.047,98.546 C59.678,99.181 59.365,99.766 59.107,100.3 C59.03,100.469 58.919,100.707 58.777,101.011 C58.635,101.318 58.48,101.662 58.312,102.044 C58.144,102.427 57.967,102.821 57.78,103.224 C57.592,103.63 57.422,104.013 57.266,104.371 C57.112,104.731 56.973,105.052 56.85,105.334 C56.726,105.618 56.64,105.813 56.588,105.921 C56.524,106.058 56.418,106.317 56.268,106.7 C56.12,107.082 55.949,107.529 55.756,108.042 C55.562,108.555 55.358,109.093 55.145,109.659 C54.933,110.224 54.731,110.761 54.545,111.265 C54.357,111.77 54.193,112.212 54.052,112.594 C53.909,112.977 53.819,113.238 53.78,113.375 C53.652,113.771 53.5,114.146 53.325,114.499 C53.151,114.851 52.95,115.159 52.725,115.428 C52.498,115.697 52.24,115.908 51.95,116.071 C51.659,116.231 51.333,116.311 50.972,116.311 C50.507,116.311 50.123,116.199 49.82,115.979 C49.517,115.756 49.364,115.333 49.364,114.706 C49.364,114.399 49.403,114.087 49.48,113.767 C49.558,113.445 49.655,113.128 49.772,112.814 C49.888,112.5 50.007,112.195 50.13,111.897 C50.252,111.598 50.365,111.312 50.468,111.036 C51.165,109.509 51.876,107.974 52.598,106.436 C53.321,104.9 54.015,103.378 54.68,101.873 C54.819,101.559 54.946,101.25 55.08,100.937 C55.04,100.977 55,101.019 54.961,101.057 C54.121,101.869 53.286,102.583 52.453,103.203 C51.619,103.821 50.793,104.316 49.974,104.682 C49.154,105.048 48.356,105.233 47.581,105.233 C47.052,105.233 46.61,105.149 46.255,104.98 C45.9,104.812 45.616,104.582 45.403,104.292 C45.19,104.002 45.038,103.659 44.947,103.261 C44.916,103.125 44.897,102.983 44.878,102.84 C44.65,103.019 44.422,103.189 44.191,103.353 C43.391,103.918 42.604,104.373 41.829,104.717 C41.055,105.061 40.357,105.234 39.738,105.234 C39.118,105.234 38.615,105.028 38.226,104.615 C37.839,104.203 37.646,103.498 37.646,102.505 C37.646,101.8 37.749,100.984 37.955,100.05 C37.62,100.647 37.2,101.251 36.697,101.862 C36.193,102.474 35.619,103.031 34.973,103.536 C34.326,104.041 33.604,104.451 32.804,104.764 C32.002,105.078 31.131,105.235 30.189,105.235 C29.762,105.235 29.353,105.18 28.959,105.075 C28.564,104.967 28.219,104.784 27.922,104.524 C27.625,104.263 27.386,103.915 27.206,103.48 C27.025,103.043 26.935,102.498 26.935,101.84 C26.935,101.824 26.961,101.592 27.013,101.139 C27.065,100.689 27.229,99.976 27.507,99.005 C27.784,98.035 28.214,96.776 28.794,95.232 C29.376,93.688 30.196,91.814 31.254,89.613 C31.525,89.031 31.839,88.615 32.193,88.363 C32.548,88.111 32.932,87.984 33.345,87.984 C33.526,87.984 33.713,88.011 33.907,88.065 C34.102,88.119 34.282,88.203 34.45,88.317 C34.617,88.432 34.753,88.577 34.857,88.753 C34.959,88.929 35.012,89.131 35.012,89.36 C35.012,89.513 34.992,89.659 34.953,89.797 C34.889,90.057 34.749,90.397 34.537,90.818 C34.324,91.239 34.075,91.721 33.79,92.263 C33.507,92.806 33.207,93.391 32.891,94.018 C32.574,94.645 32.281,95.295 32.009,95.968 C31.738,96.641 31.506,97.325 31.312,98.021 C31.119,98.717 31.009,99.394 30.983,100.051 C30.983,100.327 31.047,100.577 31.176,100.808 C31.305,101.039 31.519,101.153 31.816,101.153 C32.654,101.153 33.455,100.877 34.217,100.328 C34.978,99.775 35.682,99.093 36.328,98.273 C36.974,97.454 37.557,96.575 38.08,95.633 C38.603,94.695 39.038,93.833 39.387,93.054 C39.633,92.533 39.849,91.975 40.036,91.38 C40.223,90.783 40.427,90.234 40.646,89.728 C40.866,89.224 41.117,88.803 41.401,88.466 C41.685,88.131 42.041,87.962 42.466,87.962 C42.932,87.962 43.298,88.138 43.57,88.49 C43.841,88.842 43.975,89.262 43.975,89.752 C43.975,90.027 43.889,90.405 43.715,90.887 C43.54,91.369 43.32,91.92 43.056,92.538 C42.791,93.157 42.503,93.82 42.194,94.522 C41.885,95.225 41.596,95.94 41.333,96.668 C41.067,97.395 40.849,98.106 40.674,98.8 C40.5,99.497 40.413,100.144 40.413,100.738 C40.413,101.291 40.697,101.565 41.265,101.565 C41.665,101.565 42.162,101.427 42.756,101.153 C43.351,100.877 43.973,100.49 44.625,99.993 C44.787,99.869 44.952,99.739 45.115,99.603 C45.296,98.854 45.51,98.159 45.759,97.528 C46.211,96.335 46.668,95.149 47.134,93.972 C47.598,92.794 48.024,91.717 48.412,90.738 L54.28,75.942 C54.512,75.346 54.826,74.925 55.218,74.68 C55.612,74.435 56.01,74.313 56.41,74.313 C56.809,74.313 57.174,74.443 57.503,74.703 C57.833,74.963 57.998,75.384 57.998,75.965 C57.998,76.239 57.943,76.53 57.833,76.837 C57.724,77.143 57.584,77.471 57.416,77.823 C57.093,78.543 56.709,79.421 56.263,80.461 C55.818,81.501 55.34,82.633 54.83,83.857 C54.319,85.08 53.797,86.354 53.261,87.676 C52.725,88.999 52.202,90.287 51.692,91.542 C51.182,92.796 50.705,93.985 50.259,95.108 C49.814,96.234 49.429,97.207 49.107,98.034 C48.965,98.385 48.826,98.795 48.69,99.262 C48.554,99.729 48.487,100.145 48.487,100.512 C48.487,100.74 48.526,100.924 48.603,101.062 C48.68,101.201 48.829,101.269 49.048,101.269 C49.319,101.269 49.658,101.174 50.065,100.982 C50.472,100.793 50.91,100.538 51.382,100.225 C51.854,99.911 52.344,99.552 52.853,99.146 C53.364,98.742 53.871,98.321 54.374,97.884 C54.878,97.447 55.359,97.013 55.817,96.576 C56.275,96.141 56.686,95.739 57.047,95.373 C57.132,95.285 57.233,95.223 57.345,95.175 C57.562,94.524 57.762,93.887 57.937,93.263 C58.041,92.989 58.183,92.598 58.363,92.093 C58.543,91.588 58.751,91.09 58.983,90.602 C59.215,90.113 59.478,89.688 59.767,89.329 C60.058,88.97 60.371,88.79 60.707,88.79 C61.224,88.79 61.598,88.909 61.83,89.145 C62.062,89.382 62.179,89.73 62.179,90.19 C62.179,90.282 62.166,90.426 62.14,90.626 C62.114,90.824 62.082,91.034 62.044,91.257 C62.005,91.478 61.963,91.688 61.918,91.888 C61.872,92.086 61.831,92.231 61.792,92.323 C62.269,91.804 62.787,91.288 63.341,90.775 C63.897,90.262 64.471,89.8 65.065,89.387 C65.659,88.974 66.265,88.638 66.886,88.377 C67.504,88.118 68.125,87.987 68.744,87.987 C69.17,87.987 69.593,88.049 70.013,88.171 C70.432,88.293 70.808,88.473 71.136,88.71 C71.465,88.947 71.734,89.246 71.94,89.606 C72.146,89.964 72.25,90.38 72.25,90.855 C72.25,91.482 72.093,92.151 71.775,92.864 C71.46,93.574 71.062,94.289 70.585,95.007 C70.106,95.728 69.59,96.426 69.036,97.108 C68.48,97.787 67.961,98.407 67.477,98.963 C66.992,99.525 66.584,99.996 66.255,100.387 C65.927,100.778 65.754,101.042 65.742,101.178 C65.742,101.363 65.8,101.511 65.916,101.627 C66.032,101.74 66.227,101.799 66.497,101.799 C66.717,101.799 67.04,101.677 67.466,101.431 C67.892,101.186 68.489,100.762 69.258,100.16 C70.026,99.555 71.001,98.744 72.182,97.726 C72.993,97.03 73.941,96.199 75.01,95.253 L80.132,47.815 C79.307,48.271 78.448,48.556 77.943,48.724 C75.831,49.412 72.839,50.035 69.056,50.562 L69.056,50.562 Z" id="Shape"></path>
                </g>
            </g>
            <g id="webpack" transform="translate(29.000000, 145.000000)" fill="#FFFFFF">
                <path d="M23.6176212,6.47774221 L11.7831058,0 L0.0134187766,6.51140859 L0.03275442,20.1677787 L11.7841828,26.7020374 L23.6369578,20.1367837 L23.6176212,6.47774221 L23.6176212,6.47774221 Z M17.7423755,15.9949925 L17.7347105,10.5822574 L12.3894137,13.6184049 L12.414959,19.6923056 L17.0782239,17.1188859 L21.6513565,19.7445026 L12.4366404,24.8485066 L12.414959,19.6923056 L11.7836447,20.0406961 L11.1018375,19.6601592 L11.1236152,24.8412347 L2.01207952,19.7748745 L6.57896052,17.1358059 L11.1018375,19.6601592 L11.0762089,13.5631791 L5.90800044,10.6792578 L5.91555317,16.0114683 L1.34358743,18.6534797 L1.32867241,8.12393815 L5.90800043,10.6792578 L6.57155294,9.55476742 L1.91024389,6.95370145 L11.1283114,1.85394456 L11.1283114,7.0243391 L6.57155294,9.55476742 L11.7819133,12.4622121 L16.9932464,9.50215345 L12.4412853,7.01981905 L12.4412853,1.84822249 L21.6216957,6.87317779 L16.9932464,9.50215345 L17.7347105,10.5822574 L22.3068134,7.98528415 L22.3218002,18.624222 L17.7423755,15.9949925 L17.7423755,15.9949925 Z" id="Shape"></path>
            </g>
        </g>
    </g>
</svg>