<?xml version="1.0" encoding="UTF-8" standalone="no"?>
<svg width="81px" height="178px" viewBox="0 0 81 178" version="1.1" xmlns="http://www.w3.org/2000/svg" xmlns:xlink="http://www.w3.org/1999/xlink">
    <!-- Generator: Sketch 3.7.2 (28276) - http://www.bohemiancoding.com/sketch -->
    <title>logo-gulp-webpack-pink</title>
    <desc>Created with Sketch.</desc>
    <defs></defs>
    <g id="Joined" stroke="none" stroke-width="1" fill="none" fill-rule="evenodd">
        <g id="logo-gulp-webpack-pink" fill="#EB4A4B">
            <path d="M57.097,39.803 L60.58,25.681 L80.505,4.645 C80.511,4.639 80.518,4.632 80.525,4.625 C80.946,4.148 80.091,2.672 78.671,1.406 C77.251,0.14 75.718,-0.288 75.241,0.194 C75.237,0.198 75.233,0.201 75.23,0.205 L53.97,22.574 L49.599,39.451 C46.672,39.357 43.622,39.307 40.489,39.307 C18.344,39.307 0.393,41.783 0.393,44.837 C0.393,47.892 18.345,50.368 40.489,50.368 C62.634,50.368 80.586,47.892 80.586,44.837 C80.586,42.601 70.953,40.674 57.097,39.803 L57.097,39.803 L57.097,39.803 Z M51.734,47.752 C49.103,47.752 46.969,47.171 46.969,46.455 C46.969,46.152 47.355,45.873 47.993,45.652 L47.934,45.881 C47.911,45.919 47.898,45.957 47.898,45.996 C47.898,46.46 49.615,46.835 51.734,46.835 C53.852,46.835 55.57,46.46 55.57,45.996 L55.64,45.712 C56.18,45.922 56.499,46.178 56.499,46.455 C56.5,47.171 54.366,47.752 51.734,47.752 L51.734,47.752 L51.734,47.752 Z" id="Shape"></path>
            <path d="M40.142,140.124 C29.738,140.124 21.699,138.562 17.833,137.629 C15.19,136.992 13.066,136.334 11.454,135.656 L16.61,144.466 L18.627,171.989 C18.627,175.075 28.429,177.576 40.52,177.576 C52.611,177.576 62.413,175.075 62.413,171.989 L64.01,144.165 L68.888,135.631 C67.269,136.318 65.127,136.985 62.45,137.629 C58.585,138.562 50.545,140.124 40.142,140.124 L40.142,140.124 L40.142,140.124 Z" id="Shape"></path>
            <path d="M40.52,52.216 C29.754,52.216 19.62,51.629 11.984,50.562 C8.201,50.034 5.209,49.411 3.089,48.711 C2.584,48.544 1.726,48.258 0.902,47.804 L9.544,132.344 C10.229,134.062 23.131,138.282 40.142,138.282 C57.16,138.282 70.068,134.058 70.741,132.343 L80.132,47.815 C79.307,48.271 78.448,48.556 77.943,48.724 C75.831,49.412 72.839,50.035 69.056,50.562 C61.421,51.629 51.285,52.216 40.52,52.216 Z M62.5359246,79.6495212 L39.7054306,67 L17,79.7152638 L17.0373013,106.382972 L39.7075084,119.142857 L62.5732276,106.322447 L62.5359246,79.6495212 Z M51.2017249,98.2344933 L51.1869379,87.664683 L40.8750864,93.5935715 L40.9243669,105.454484 L49.9204803,100.429195 L58.7427153,105.556413 L40.9661935,115.523343 L40.9243669,105.454484 L39.7064703,106.13481 L38.3911654,105.39171 L38.4331777,115.509143 L20.855706,105.615722 L29.6658808,100.462236 L38.3911654,105.39171 L38.3417241,93.4857285 L28.3715016,87.854102 L28.3860719,98.2666669 L19.5660879,103.425899 L19.5373147,82.8641583 L28.3715016,87.854102 L29.6515905,85.6582344 L20.6592503,80.5789587 L38.4422373,70.6203217 L38.4422373,80.7168975 L29.6515905,85.6582344 L39.7031302,91.3357965 L49.7565464,85.5554916 L40.9751541,80.7080709 L40.9751541,70.6091479 L58.6854953,80.4217147 L49.7565464,85.5554916 L51.1869379,87.664683 L60.0071865,82.5933993 L60.0360982,103.368766 L51.2017249,98.2344933 Z" id="Combined-Shape"></path>
        </g>
    </g>
</svg>