<svg width="81" height="178" viewBox="0 0 81 178" xmlns="http://www.w3.org/2000/svg"><title>logo-gulp-webpack</title><g fill="#FFF" fill-rule="evenodd"><path d="M57.097 39.803l3.483-14.122L80.505 4.645l.02-.02c.421-.477-.434-1.953-1.854-3.219C77.251.14 75.718-.288 75.241.194l-.011.011-21.26 22.369-4.371 16.877a284.49 284.49 0 0 0-9.11-.144c-22.145 0-40.096 2.476-40.096 5.53 0 3.055 17.952 5.531 40.096 5.531 22.145 0 40.097-2.476 40.097-5.531 0-2.236-9.633-4.163-23.489-5.034zm-5.363 7.949c-2.631 0-4.765-.581-4.765-1.297 0-.303.386-.582 1.024-.803l-.059.229a.221.221 0 0 0-.036.115c0 .464 1.717.839 3.836.839 2.118 0 3.836-.375 3.836-.839l.07-.284c.54.21.859.466.859.743.001.716-2.133 1.297-4.765 1.297zm-11.592 92.372c-10.404 0-18.443-1.562-22.309-2.495-2.643-.637-4.767-1.295-6.379-1.973l5.156 8.81 2.017 27.523c0 3.086 9.802 5.587 21.893 5.587 12.091 0 21.893-2.501 21.893-5.587l1.597-27.824 4.878-8.534c-1.619.687-3.761 1.354-6.438 1.998-3.865.933-11.905 2.495-22.308 2.495z"/><path d="M40.52 52.216c-10.766 0-20.9-.587-28.536-1.654-3.783-.528-6.775-1.151-8.895-1.851-.505-.167-1.363-.453-2.187-.907l8.642 84.54c.685 1.718 13.587 5.938 30.598 5.938 17.018 0 29.926-4.224 30.599-5.939l9.391-84.528c-.825.456-1.684.741-2.189.909-2.112.688-5.104 1.311-8.887 1.838-7.635 1.067-17.771 1.654-28.536 1.654zM62.536 79.65L39.706 67 17 79.715l.037 26.668 22.67 12.76 22.866-12.82-.037-26.673zM51.202 98.234l-.015-10.57-10.312 5.93.05 11.86 8.995-5.025 8.823 5.127-17.777 9.967-.042-10.069-1.218.68-1.315-.742.042 10.117-17.577-9.893 8.81-5.154 8.725 4.93-.05-11.906-9.97-5.632.015 10.413-8.82 5.159-.029-20.562 8.835 4.99 1.28-2.196-8.993-5.079 17.783-9.959v10.097l-8.79 4.941 10.051 5.678 10.054-5.78-8.782-4.848V70.61l17.71 9.813-8.928 5.133 1.43 2.11 8.82-5.072.03 20.776-8.835-5.135z"/></g></svg>