<svg xmlns="http://www.w3.org/2000/svg" width="80.239" height="177.576" viewBox="19.393 -1 80.239 177.576"><g fill="#FFF"><path d="M76.097 38.803L79.58 24.68 99.505 3.646l.02-.02c.42-.477-.434-1.953-1.854-3.22-1.42-1.265-2.952-1.693-3.43-1.21l-.01.01-21.26 22.37L68.6 38.45a284.49 284.49 0 0 0-9.11-.143c-22.146 0-40.097 2.476-40.097 5.53 0 3.055 17.952 5.53 40.096 5.53 22.144 0 40.096-2.475 40.096-5.53 0-2.236-9.633-4.163-23.49-5.034zm-5.363 7.95c-2.63 0-4.765-.582-4.765-1.298 0-.303.385-.582 1.023-.803l-.06.23a.22.22 0 0 0-.035.114c0 .464 1.717.84 3.836.84 2.118 0 3.836-.376 3.836-.84l.07-.284c.54.21.86.466.86.743 0 .716-2.134 1.297-4.766 1.297zM59.142 139.124c-10.404 0-18.443-1.562-22.31-2.495-2.642-.638-4.766-1.296-6.378-1.974l5.156 8.81 2.017 27.523c0 3.085 9.802 5.586 21.893 5.586s21.893-2.5 21.893-5.587l1.597-27.825 4.878-8.534c-1.62.688-3.76 1.355-6.438 2-3.865.932-11.905 2.494-22.308 2.494z"/><path d="M88.056 49.562c-7.635 1.067-17.77 1.654-28.536 1.654-10.766 0-20.9-.587-28.536-1.654-3.783-.528-6.775-1.15-8.895-1.85-.506-.168-1.364-.454-2.188-.908l4.73 43.542c.22-.75.465-1.5.737-2.246a42.367 42.367 0 0 1 1.926-4.485c.73-1.46 1.523-2.84 2.382-4.14a31.945 31.945 0 0 1 2.74-3.59 21.92 21.92 0 0 1 2.983-2.82c1.02-.79 2.05-1.404 3.09-1.847 1.04-.444 2.07-.666 3.09-.666 1.173 0 2.31.322 3.408.964 1.097.642 2.123 1.683 3.08 3.12.218.322.358.646.416.975.06.33.087.64.087.93 0 .688-.164 1.232-.493 1.63-.33.396-.72.595-1.17.595-.415 0-.798-.218-1.153-.653-.355-.436-.752-1.06-1.19-1.87-.415-.735-.87-1.266-1.366-1.595a2.872 2.872 0 0 0-1.617-.493c-.903 0-1.868.375-2.895 1.124-1.026.75-2.043 1.74-3.05 2.97-1.007 1.232-1.973 2.64-2.896 4.222a44.156 44.156 0 0 0-2.45 4.862 34.82 34.82 0 0 0-1.696 4.91c-.42 1.613-.63 3.063-.63 4.347 0 .428.03.868.088 1.318.06.45.167.86.33 1.228.16.367.38.67.658.905.278.24.63.357 1.056.357.478 0 1.02-.16 1.627-.482a12.09 12.09 0 0 0 1.887-1.262c.652-.52 1.308-1.11 1.967-1.766a31.298 31.298 0 0 0 1.84-1.997 29.16 29.16 0 0 0 1.51-1.938c.44-.618.768-1.157.988-1.615l1.8-5.392c.22-.58.507-.994.863-1.238.355-.245.72-.368 1.094-.368.18 0 .36.03.542.09.182.063.342.158.485.288.14.13.254.298.337.505.084.206.126.447.126.722 0 .734-.064 1.422-.193 2.065a16.28 16.28 0 0 1-.494 1.88c-.2.61-.423 1.23-.668 1.848a44.67 44.67 0 0 0-.716 1.938c-.052.078-.146.32-.28.724a110.302 110.302 0 0 0-1.124 3.578c-.227.757-.458 1.53-.697 2.316-.238.79-.467 1.56-.687 2.317-.22.758-.417 1.442-.59 2.056l-.438 1.535c-.116.414-.187.658-.213.736a4.703 4.703 0 0 1-.31.813 5.38 5.38 0 0 1-.503.848c-.194.27-.408.49-.64.665-.232.176-.47.264-.717.264-.413 0-.713-.138-.9-.412-.188-.274-.28-.78-.28-1.514v-.32c0-.107.005-.222.018-.344.014-.244.11-.705.292-1.378.18-.673.397-1.432.65-2.28.25-.85.522-1.73.812-2.64.29-.91.552-1.724.784-2.442a38.564 38.564 0 0 1-2.227 2.282c-.8.757-1.62 1.438-2.46 2.043a14.585 14.585 0 0 1-2.536 1.48c-.852.38-1.672.572-2.46.572-.903 0-1.68-.198-2.333-.597-.117-.07-.228-.154-.338-.234l2.632 27.604c.685 1.718 13.587 5.938 30.598 5.938 17.018 0 29.926-4.224 30.6-5.94l3.78-32.815c-.313.286-.617.568-.91.84a39.16 39.16 0 0 1-3.07 2.603c-.96.727-1.9 1.29-2.816 1.686a7.313 7.313 0 0 1-2.944.597c-.98 0-1.74-.214-2.275-.64-.536-.43-.804-1.02-.804-1.767v-.173c0-.054.006-.12.02-.196.05-.458.25-.987.6-1.582.348-.597.768-1.217 1.258-1.858a51.8 51.8 0 0 1 1.57-1.95 86.074 86.074 0 0 0 1.54-1.87c.47-.587.86-1.127 1.17-1.616.312-.49.467-.886.467-1.192a.543.543 0 0 0-.193-.437c-.13-.104-.344-.16-.64-.16-.517 0-1.05.136-1.597.403a7.88 7.88 0 0 0-1.628 1.078c-.537.45-1.06.968-1.57 1.55a22.79 22.79 0 0 0-1.433 1.81c-.446.63-.852 1.26-1.22 1.896-.37.635-.682 1.22-.94 1.754-.077.17-.188.407-.33.71-.142.308-.297.652-.465 1.034-.168.383-.345.777-.532 1.18-.188.406-.358.79-.514 1.147-.154.36-.293.682-.416.964-.124.284-.21.48-.262.587-.064.138-.17.397-.32.78-.148.382-.32.83-.512 1.342-.194.513-.398 1.05-.61 1.617a517.97 517.97 0 0 0-1.093 2.935c-.144.382-.234.643-.273.78a8.22 8.22 0 0 1-.455 1.124c-.174.35-.375.66-.6.928-.227.27-.485.48-.775.643-.29.16-.617.24-.978.24-.465 0-.85-.11-1.152-.33-.303-.224-.456-.647-.456-1.274a4 4 0 0 1 .116-.94c.078-.32.175-.638.292-.952.116-.314.235-.62.358-.917.122-.3.235-.585.338-.86a474.183 474.183 0 0 1 2.13-4.6 210.16 210.16 0 0 0 2.082-4.564c.14-.314.266-.623.4-.936-.04.04-.08.082-.12.12a25.7 25.7 0 0 1-2.507 2.146 13.33 13.33 0 0 1-2.48 1.48c-.82.365-1.617.55-2.392.55-.528 0-.97-.084-1.325-.253-.355-.168-.64-.398-.852-.688s-.365-.633-.456-1.03a4.678 4.678 0 0 1-.07-.422c-.227.18-.455.35-.686.513a13.88 13.88 0 0 1-2.36 1.364c-.775.344-1.473.517-2.092.517-.62 0-1.123-.206-1.512-.62-.387-.41-.58-1.116-.58-2.11 0-.704.103-1.52.31-2.454-.336.597-.756 1.2-1.26 1.812a10.988 10.988 0 0 1-1.723 1.674 8.585 8.585 0 0 1-2.17 1.228 7.108 7.108 0 0 1-2.614.47c-.428 0-.837-.054-1.23-.16a2.584 2.584 0 0 1-1.038-.55c-.297-.26-.536-.61-.716-1.044-.18-.437-.27-.982-.27-1.64 0-.016.025-.248.077-.7.052-.45.216-1.164.494-2.135.277-.97.707-2.23 1.287-3.773.582-1.544 1.402-3.418 2.46-5.62.27-.58.585-.997.94-1.25a1.952 1.952 0 0 1 1.713-.297c.195.054.375.138.543.252.167.115.303.26.407.436.102.176.155.378.155.607 0 .153-.02.3-.06.437-.063.26-.203.6-.415 1.02-.213.422-.462.904-.747 1.446-.283.543-.583 1.128-.9 1.755-.316.627-.61 1.277-.88 1.95-.272.673-.504 1.357-.698 2.053a8.913 8.913 0 0 0-.33 2.03c0 .277.065.527.194.758s.343.345.64.345c.838 0 1.64-.276 2.4-.825a10.698 10.698 0 0 0 2.112-2.055c.646-.82 1.23-1.698 1.752-2.64.523-.938.958-1.8 1.307-2.58.246-.52.462-1.078.65-1.673.186-.597.39-1.146.61-1.652.22-.504.47-.925.754-1.262.285-.335.64-.504 1.066-.504.466 0 .832.176 1.104.528.27.352.405.772.405 1.262 0 .275-.086.653-.26 1.135a32.53 32.53 0 0 1-.66 1.65 214 214 0 0 1-.86 1.985c-.31.703-.6 1.418-.862 2.146a21.51 21.51 0 0 0-.66 2.132 8.043 8.043 0 0 0-.26 1.938c0 .553.284.827.852.827.4 0 .897-.138 1.49-.412.596-.276 1.218-.663 1.87-1.16.162-.124.327-.254.49-.39.18-.75.395-1.444.644-2.075.45-1.193.908-2.38 1.374-3.556.464-1.178.89-2.255 1.278-3.234l5.868-14.796c.232-.596.546-1.017.938-1.262.394-.245.792-.367 1.192-.367.4 0 .764.13 1.093.39.33.26.495.68.495 1.262 0 .274-.055.565-.165.872-.11.306-.25.634-.417.986-.323.72-.707 1.598-1.153 2.638a388.212 388.212 0 0 0-3.002 7.216c-.535 1.323-1.058 2.61-1.568 3.866-.51 1.254-.987 2.443-1.433 3.566-.446 1.126-.83 2.1-1.153 2.926-.142.35-.28.76-.417 1.228s-.203.883-.203 1.25c0 .228.04.412.116.55.077.14.226.207.445.207.27 0 .61-.096 1.017-.288.407-.19.845-.444 1.317-.757.472-.314.962-.673 1.47-1.08.512-.403 1.02-.824 1.522-1.26.504-.438.985-.872 1.443-1.31.458-.434.87-.836 1.23-1.202a.893.893 0 0 1 .298-.198c.217-.65.417-1.288.592-1.912.104-.274.246-.665.426-1.17s.388-1.003.62-1.49c.232-.49.495-.915.784-1.274.29-.36.604-.54.94-.54.517 0 .89.12 1.123.355.232.237.35.585.35 1.045 0 .092-.014.236-.04.436a13.802 13.802 0 0 1-.222 1.262 2.92 2.92 0 0 1-.126.435c.477-.52.995-1.035 1.55-1.548.555-.513 1.13-.975 1.723-1.388s1.2-.75 1.82-1.01c.62-.26 1.24-.39 1.86-.39.425 0 .848.062 1.268.184.42.123.795.303 1.123.54.33.237.598.536.804.896.206.358.31.774.31 1.25 0 .626-.157 1.295-.475 2.008-.315.71-.713 1.425-1.19 2.143-.48.72-.995 1.42-1.55 2.1a81.34 81.34 0 0 1-1.558 1.856c-.485.562-.893 1.033-1.222 1.424-.328.39-.5.655-.513.79 0 .186.058.334.174.45.116.113.31.172.58.172.22 0 .544-.123.97-.37.426-.244 1.023-.668 1.792-1.27a89.52 89.52 0 0 0 2.924-2.434c.81-.696 1.76-1.527 2.828-2.473l5.122-47.438c-.825.456-1.684.74-2.19.91-2.11.687-5.103 1.31-8.886 1.837z"/></g></svg>