<?xml version="1.0" encoding="utf-8"?>
<!-- Generator: Adobe Illustrator 16.0.4, SVG Export Plug-In . SVG Version: 6.00 Build 0)  -->
<!DOCTYPE svg PUBLIC "-//W3C//DTD SVG 1.1//EN" "http://www.w3.org/Graphics/SVG/1.1/DTD/svg11.dtd">
<svg version="1.1" id="Layer_1" xmlns="http://www.w3.org/2000/svg" xmlns:xlink="http://www.w3.org/1999/xlink" x="0px" y="0px"
	 width="100px" height="109.056px" viewBox="0 79.653 100 109.056" enable-background="new 0 79.653 100 109.056"
	 xml:space="preserve">
<path d="M33.196,90.129c-7.205,7.737-5.216,20.094-5.216,20.094s7.354,8.721,21.802,8.721s21.806-8.721,21.806-8.721
	s1.958-12.191-5.093-19.937c4.411-2.457,7.009-6.008,5.936-8.422c-1.218-2.721-6.591-2.964-12.025-0.541
	c-2.019,0.898-3.739,2.04-5.076,3.253c-1.695-0.307-3.492-0.516-5.549-0.516c-1.916,0-3.619,0.183-5.225,0.443
	c-1.316-1.192-3.006-2.299-4.978-3.181c-5.434-2.415-10.816-2.172-12.025,0.541C26.498,84.227,28.955,87.681,33.196,90.129z
	 M87.854,146.435c-1.125-0.238-2.197-0.375-3.236-0.477c0-0.29,0.051-0.562,0.051-0.86c0-4.578-0.647-8.946-1.695-13.098
	c2.24,0.191,5.093-0.324,7.979-1.605c5.434-2.423,8.857-6.592,7.648-9.295c-1.209-2.721-6.592-2.964-12.025-0.541
	c-2.538,1.133-4.607,2.653-5.996,4.211c-1.056-2.487-2.249-4.875-3.654-7.047c-4.113,3.428-11.897,8.546-22.764,9.683v43.846
	c0,0-0.034,4.36-4.365,4.36c-4.326,0-4.36-4.36-4.36-4.36v-43.83c-10.875-1.137-18.664-6.264-22.768-9.683
	c-1.346,2.086-2.504,4.36-3.535,6.723c-1.401-1.448-3.355-2.84-5.719-3.896c-5.433-2.415-10.815-2.172-12.025,0.541
	c-1.213,2.712,2.214,6.873,7.647,9.295c2.704,1.206,5.387,1.746,7.559,1.648c-1.043,4.143-1.699,8.495-1.699,13.055
	c0,0.298,0.051,0.579,0.06,0.886c-0.916,0.102-1.865,0.238-2.832,0.443c-7.082,1.465-12.506,5.127-12.106,8.15
	c0.4,3.041,6.472,4.292,13.571,2.819c0.924-0.187,1.831-0.426,2.695-0.689c1.248,5.561,3.245,10.722,6.008,15.167
	c-1.639,0.826-3.343,2.044-4.91,3.628c-4.343,4.343-6.106,9.624-3.935,11.795c2.172,2.172,7.448,0.409,11.791-3.926
	c1.273-1.277,2.295-2.623,3.087-3.952c5.932,5.808,13.362,9.283,21.47,9.283c8.222,0,15.776-3.577,21.738-9.53
	c0.8,1.405,1.874,2.836,3.219,4.182c4.334,4.343,9.624,6.106,11.795,3.935c2.172-2.172,0.409-7.443-3.935-11.787
	c-1.678-1.686-3.5-2.964-5.237-3.807c2.742-4.429,4.718-9.589,5.953-15.134c0.979,0.307,2.001,0.596,3.075,0.826
	c7.094,1.473,13.166,0.213,13.575-2.819C100.364,151.562,94.939,147.899,87.854,146.435z"/>
</svg>
