<?xml version="1.0" encoding="utf-8"?>
<!-- Generator: Adobe Illustrator 16.0.4, SVG Export Plug-In . SVG Version: 6.00 Build 0)  -->
<!DOCTYPE svg PUBLIC "-//W3C//DTD SVG 1.1//EN" "http://www.w3.org/Graphics/SVG/1.1/DTD/svg11.dtd">
<svg version="1.1" id="Layer_1" xmlns="http://www.w3.org/2000/svg" xmlns:xlink="http://www.w3.org/1999/xlink" x="0px" y="0px"
	 width="100px" height="97.534px" viewBox="0 0 100 97.534" enable-background="new 0 0 100 97.534" xml:space="preserve">
<path d="M50,0C22.388,0,0,22.388,0,50c0,22.095,14.325,40.833,34.195,47.442c2.5,0.458,3.412-1.086,3.412-2.404
	c0-1.19-0.045-5.133-0.07-9.308c-12.569,2.291-15.792-3.081-16.843-5.896c-0.54-1.446-2.969-5.884-5.117-7.057
	c-1.756-0.959-4.225-3.246-0.089-3.294c3.949-0.046,6.772,3.644,7.663,5.151c4.486,7.593,11.707,5.433,14.551,4.15
	c0.455-3.222,1.748-5.432,3.174-6.677C29.776,70.844,18.1,66.553,18.1,47.394c0-5.463,1.95-9.918,5.143-13.418
	c-0.51-1.269-2.231-6.357,0.494-13.238c0,0,4.193-1.343,13.751,5.127c3.985-1.114,8.261-1.663,12.512-1.682
	c4.248,0.019,8.527,0.574,12.519,1.688c9.54-6.476,13.739-5.127,13.739-5.127c2.734,6.888,1.013,11.969,0.5,13.232
	c3.204,3.5,5.139,7.956,5.139,13.418c0,19.208-11.694,23.438-22.833,24.677c1.8,1.55,3.393,4.59,3.393,9.252
	c0,6.684-0.067,12.073-0.067,13.721c0,1.331,0.909,2.887,3.442,2.399C85.687,90.82,100,72.083,100,50C100,22.388,77.612,0,50,0z"/>
</svg>
